<svg width="32" height="50" viewBox="0 0 32 50" fill="none" xmlns="http://www.w3.org/2000/svg">
<path d="M31.5482 5.3442C31.1258 4.69723 30.5086 4.67865 29.8052 4.65747C29.7255 4.65507 29.6447 4.65265 29.5631 4.64926C29.5008 4.64639 29.4321 4.6475 29.3604 4.64865C29.0751 4.65323 28.7414 4.65859 28.5734 4.41893C28.3785 4.14108 28.397 3.6041 28.4122 3.16082C28.4171 3.02074 28.4215 2.88993 28.4189 2.77971C28.3915 1.74995 28.3343 0.656078 27.9369 0.290399C27.6371 0.016036 26.7404 0.0540453 25.9134 0.089099C25.6453 0.100462 25.3845 0.111515 25.1538 0.111515H7.55042C7.196 0.111515 6.82446 0.0826551 6.45942 0.0542984C5.74812 -0.000955944 5.06144 -0.0542983 4.57379 0.111515C3.8661 0.353334 3.81817 1.62404 3.77306 2.8206L3.77063 2.88498C3.73274 3.87278 3.48794 4.63501 2.6766 4.55824C1.73297 4.47037 0.793994 4.44268 0.367346 5.29672C-0.136536 6.30719 -0.0326163 7.36494 0.15352 9.25952C0.180109 9.53016 0.208375 9.81786 0.236787 10.1249H31.8204C31.8385 9.90049 31.8576 9.67891 31.8767 9.46093C32.0245 7.75638 32.1533 6.27124 31.5482 5.3442Z" fill="#8047F8"/>
<path fill-rule="evenodd" clip-rule="evenodd" d="M2.6964 12.004C3.18967 18.6802 3.67756 25.3638 4.16546 32.0477L4.16576 32.0518C4.43066 35.6809 4.69558 39.3099 4.96136 42.938H5.96912C6.03778 43.5058 6.11636 44.2069 6.1992 44.9461C6.36737 46.4465 6.55315 48.1042 6.70934 49.1228H6.8208C7.84729 48.7472 14.9436 45.714 14.9467 33.6382C14.9454 33.6038 14.9465 33.5693 14.9501 33.5352H13.1969C13.1121 33.5344 13.0297 33.506 12.9628 33.4545C12.8958 33.4031 12.8478 33.3312 12.8261 33.25C12.6553 32.8281 12.5175 32.3936 12.4141 31.9507C11.3827 32.5333 10.5637 33.4227 10.0737 34.4924C9.60864 33.3968 9.54776 32.1746 9.90173 31.0392C10.2557 29.9038 11.002 28.9275 12.0103 28.2808C12.0233 24.757 13.3427 21.3602 15.7185 18.7335L15.7557 18.7008C15.8247 18.6411 15.9132 18.6079 16.0049 18.6071C16.0579 18.6076 16.1103 18.6189 16.1586 18.6404C16.2076 18.6622 16.2513 18.6939 16.2872 18.7335C18.6909 21.3639 20.0033 24.7932 19.9625 28.3379C20.9895 28.9665 21.7511 29.9421 22.1057 31.0836C22.4603 32.2252 22.3839 33.4552 21.8909 34.5453C21.4035 33.4739 20.5837 32.5837 19.5504 32.0037C19.4874 32.433 19.3711 32.8529 19.2043 33.2542C19.1467 33.4252 19.0313 33.5352 18.9159 33.5352H17.0462C17.0492 33.5556 17.0513 33.5762 17.0525 33.5969L17.0533 33.6016V33.6116C17.0539 33.6294 17.0539 33.6472 17.0533 33.665C17.0789 46.0875 24.6237 48.9072 25.2597 49.1228H25.4772C25.5327 48.1444 25.7135 46.7942 25.8898 45.478C26.0112 44.571 26.1305 43.68 26.2052 42.938H27.2245C27.5509 38.3682 27.8864 33.8112 28.222 29.2541L28.2223 29.2516L28.2224 29.2503C28.6516 23.4212 29.0809 17.592 29.4907 11.7357H2.76168C2.68474 11.7508 2.68999 11.8766 2.6964 12.004ZM16.0049 18.6071H16.0029H16.0069H16.0049Z" fill="#8047F8"/>
</svg>
